# xmcd CD database file
#
# Track frame offsets:
#	150
#	16605
#	33867
#	53045
#	66393
#	93808
#	106208
#	120509
#	134998
#	149757
#
# Disc length: 2150 seconds
#
# Revision: 0
# Processed by: cddbd v1.5.2PL0 Copyright (c) Steve Scherf et al.
# Submitted via: CDex 1.51
#
DISCID=8808640a
DTITLE=Barry Brenner - Blues, Rags and Stomps!
DYEAR=2006
DGENRE=Blues
TTITLE0=01-Hollywood and Vine
TTITLE1=02-Longest Road I Know
TTITLE2=03-Take that Train and Ride
TTITLE3=04-Cakewalk Parade
TTITLE4=05-Billy The Gambler
TTITLE5=06-Slip In Slide
TTITLE6=07-Walk My Blues Away
TTITLE7=08-Avocado Dog Bite
TTITLE8=09-Cannonball Blues
TTITLE9=10-Trippin Along
EXTD=YEAR: 2006
EXTT0=
EXTT1=
EXTT2=
EXTT3=
EXTT4=
EXTT5=
EXTT6=
EXTT7=
EXTT8=
EXTT9=
PLAYORDER=
